# xmcd CD database file
#
# Track frame offsets:
#	150
#	18338
#	31522
#	45415
#	55105
#	72830
#	90314
#	106985
#	124785
#	142595
#	159768
#	176797
#	193520
#
# Disc length: 2872 seconds
#
# Revision: 0
# Processed by: cddbd v1.5.1PL0 Copyright (c) Steve Scherf et al.
# Submitted via: CDex 1.51
#
DISCID=910b360d
DTITLE=Jan Vardøen - Songs From The Blue Country
DYEAR=2005
DGENRE=Country
TTITLE0=Don't make my brown eyes blue
TTITLE1=Tougher than the rest
TTITLE2=This guy's in love with you
TTITLE3=There stands the glass
TTITLE4=Hallelujah
TTITLE5=Song for you
TTITLE6=Any day now
TTITLE7=Little things in life
TTITLE8=Party girls
TTITLE9=Wild side of life
TTITLE10=So much wine
TTITLE11=Walk on bye
TTITLE12=Raining in Nashville
EXTD=YEAR: 2005
EXTT0=
EXTT1=
EXTT2=
EXTT3=
EXTT4=
EXTT5=
EXTT6=
EXTT7=
EXTT8=
EXTT9=
EXTT10=
EXTT11=
EXTT12=
PLAYORDER=
